# xmcd
# Copyright (C) 1995-1998 Ti Kan
#
# Track frame offsets:
#       150
#       15675
#       32775
#       71250
#       111300
#       127050
#       141750
#       157125
#       196950
#       225090
#       248865
#       264165
#       297765
#       315765
#
# Disc length: 4706 seconds
#
# Revision: 12
# Processed by: cddbd v1.5.2PL0 Copyright (c) Steve Scherf et al.
# Submitted via: CD-Transfer v1.0
#
DISCID=b912600e
DTITLE=Rihanna - 
DYEAR=08
DGENRE=
TTITLE0=Up
TTITLE1=Boyz (Radio Edit)
TTITLE2=Disguise (Jason Nevins Remix Uk Extended)
TTITLE3=Diamond Life (Full Main Mix)
TTITLE4=Diamond Life (Driule Xl Edit)
TTITLE5=Hit 'n' Run
TTITLE6=Wheel Of Fortune 2009 (Radio Edit)
TTITLE7=Roots Before Branches (Almighty Extended Mix)
TTITLE8=I Decided (Mr.mig Main Remix)
TTITLE9=Set In Stone (Don Rimini Remix)
TTITLE10=Roll Wit It (Karl G Radio Edit)
TTITLE11=How Many Words (Dave Aude Club Mix)
TTITLE12=Poker Face
TTITLE13=Disturbia (Jody Den Broeder Bum Bum Dub)
EXTD=
EXTT0=
EXTT1=
EXTT2=
EXTT3=
EXTT4=
EXTT5=
EXTT6=
EXTT7=
EXTT8=
EXTT9=
EXTT10=
EXTT11=
EXTT12=
EXTT13=
PLAYORDER=
